<svg width="22" height="23" viewBox="0 0 22 23" fill="none" xmlns="http://www.w3.org/2000/svg">
<path fill-rule="evenodd" clip-rule="evenodd" d="M5.4565 22.228C2.86939 22.228 0.7715 20.1305 0.7715 17.544L0.7715 12.669C0.7715 10.0817 2.86921 7.98403 5.4565 7.98403H6.3895C6.94178 7.98403 7.3895 8.43174 7.3895 8.98403C7.3895 9.53631 6.94178 9.98403 6.3895 9.98403H5.4565C3.97378 9.98403 2.7715 11.1863 2.7715 12.669V17.544C2.7715 19.0256 3.97361 20.228 5.4565 20.228H16.5865C18.0694 20.228 19.2715 19.0256 19.2715 17.544V12.659C19.2715 11.182 18.0739 9.98403 16.5975 9.98403H15.6545C15.1022 9.98403 14.6545 9.53631 14.6545 8.98403C14.6545 8.43174 15.1022 7.98403 15.6545 7.98403H16.5975C19.1791 7.98403 21.2715 10.0781 21.2715 12.659V17.544C21.2715 20.1305 19.1736 22.228 16.5865 22.228H5.4565Z" fill="#DF9130"/>
<path fill-rule="evenodd" clip-rule="evenodd" d="M11.0214 15.2314C10.4691 15.2314 10.0214 14.7837 10.0214 14.2314V2.19044C10.0214 1.63816 10.4691 1.19044 11.0214 1.19044C11.5737 1.19044 12.0214 1.63816 12.0214 2.19044V14.2314C12.0214 14.7837 11.5737 15.2314 11.0214 15.2314Z" fill="#DF9130"/>
<path fill-rule="evenodd" clip-rule="evenodd" d="M7.57715 4.65041C7.28361 4.35816 7.28255 3.88329 7.57479 3.58975L10.4898 0.661747C10.6305 0.520389 10.8218 0.440914 11.0212 0.440897C11.2207 0.440879 11.412 0.520322 11.5527 0.661656L14.4687 3.58966C14.761 3.88315 14.76 4.35802 14.4665 4.65031C14.173 4.94261 13.6982 4.94163 13.4059 4.64814L11.0214 2.25383L8.63781 4.64805C8.34557 4.94159 7.8707 4.94265 7.57715 4.65041Z" fill="#DF9130"/>
</svg>
