<svg width="38" height="28" viewBox="0 0 38 28" fill="none" xmlns="http://www.w3.org/2000/svg">
<path d="M32.75 27.75C32.405 27.75 32.125 27.47 32.125 27.125V10.875C32.125 10.53 32.405 10.25 32.75 10.25C33.095 10.25 33.375 10.53 33.375 10.875V27.125C33.375 27.47 33.095 27.75 32.75 27.75Z" fill="#E0E0E0" fill-opacity="0.5"/>
<path d="M5.25 27.75C4.905 27.75 4.625 27.47 4.625 27.125V10.875C4.625 10.53 4.905 10.25 5.25 10.25C5.595 10.25 5.875 10.53 5.875 10.875V27.125C5.875 27.47 5.595 27.75 5.25 27.75Z" fill="#E0E0E0" fill-opacity="0.5"/>
<path d="M19.0001 12.04C18.8764 12.04 18.7539 12.0037 18.6476 11.9312L3.44137 1.52624C3.15637 1.33124 3.08387 0.942495 3.27887 0.657495C3.47387 0.372495 3.86137 0.298745 4.14762 0.494995L19.0001 10.6575L30.1976 2.99625C30.4839 2.80125 30.8726 2.875 31.0664 3.15875C31.2614 3.44375 31.1889 3.8325 30.9039 4.0275L19.3539 11.93C19.2464 12.0037 19.1239 12.04 19.0001 12.04Z" fill="#E0E0E0" fill-opacity="0.5"/>
<path d="M34.625 27.75H3.375C1.6525 27.75 0.25 26.3475 0.25 24.625V3.375C0.25 3.03 0.53 2.75 0.875 2.75C1.22 2.75 1.5 3.03 1.5 3.375V24.625C1.5 25.6588 2.34125 26.5 3.375 26.5H34.625C35.6587 26.5 36.5 25.6588 36.5 24.625V3.375C36.5 2.34125 35.6587 1.5 34.625 1.5C34.28 1.5 34 1.22 34 0.875C34 0.53 34.28 0.25 34.625 0.25C36.3475 0.25 37.75 1.6525 37.75 3.375V24.625C37.75 26.3475 36.3475 27.75 34.625 27.75Z" fill="#E0E0E0" fill-opacity="0.5"/>
<path d="M19 17.75C18.8762 17.75 18.7525 17.7138 18.645 17.64L1.5825 5.8725C0.7475 5.2975 0.25 4.3475 0.25 3.33375C0.25 1.63375 1.63375 0.25 3.33375 0.25H34.665C36.3662 0.25 37.75 1.63375 37.75 3.33375C37.75 4.3475 37.2525 5.29625 36.4175 5.8725L19.355 17.64C19.2475 17.7138 19.1238 17.75 19 17.75ZM3.33375 1.5C2.3225 1.5 1.5 2.3225 1.5 3.33375C1.5 3.9375 1.79625 4.50125 2.2925 4.84375L19 16.3662L35.7075 4.84375C36.2038 4.50125 36.5 3.9375 36.5 3.33375C36.5 2.3225 35.6775 1.5 34.6663 1.5H3.33375Z" fill="#E0E0E0" fill-opacity="0.5"/>
</svg>
