<svg width="25" height="25" viewBox="0 0 25 25" fill="none" xmlns="http://www.w3.org/2000/svg">
<path d="M22.7825 21.7175L17.9075 16.8425H17.855C19.3576 15.0708 20.117 12.7867 19.9742 10.468C19.8314 8.14934 18.7976 5.97567 17.089 4.40171C15.3804 2.82775 13.1293 1.97544 10.8067 2.02306C8.48414 2.07068 6.26992 3.01454 4.62725 4.65721C2.98459 6.29987 2.04072 8.51409 1.9931 10.8367C1.94549 13.1593 2.7978 15.4103 4.37176 17.1189C5.94571 18.8276 8.11938 19.8614 10.4381 20.0042C12.7568 20.1469 15.0408 19.3876 16.8125 17.885C16.8125 17.885 16.8125 17.9225 16.8125 17.9375L21.6875 22.8125C21.7573 22.8828 21.8402 22.9386 21.9316 22.9767C22.023 23.0147 22.121 23.0343 22.22 23.0343C22.319 23.0343 22.4171 23.0147 22.5085 22.9767C22.5999 22.9386 22.6828 22.8828 22.7525 22.8125C22.8294 22.7444 22.8915 22.6613 22.935 22.5682C22.9784 22.4752 23.0023 22.3742 23.0051 22.2715C23.0079 22.1688 22.9896 22.0667 22.9513 21.9714C22.913 21.8761 22.8556 21.7897 22.7825 21.7175ZM11 18.5C9.51668 18.5 8.06663 18.0601 6.83326 17.236C5.5999 16.4119 4.6386 15.2406 4.07094 13.8701C3.50329 12.4997 3.35476 10.9917 3.64415 9.53682C3.93354 8.08196 4.64785 6.74559 5.69674 5.69669C6.74563 4.6478 8.08201 3.93349 9.53686 3.6441C10.9917 3.35472 12.4997 3.50324 13.8702 4.0709C15.2406 4.63856 16.412 5.59985 17.2361 6.83322C18.0602 8.06659 18.5 9.51663 18.5 11C18.5 11.9849 18.306 12.9602 17.9291 13.8701C17.5522 14.7801 16.9998 15.6069 16.3033 16.3033C15.6069 16.9997 14.7801 17.5522 13.8702 17.9291C12.9602 18.306 11.985 18.5 11 18.5Z" fill="black"/>
</svg>
