<svg width="38" height="38" viewBox="0 0 38 38" fill="none" xmlns="http://www.w3.org/2000/svg">
<path d="M18.6713 37.75C8.3425 37.75 0.25 29.5138 0.25 19C0.25 14.4637 1.79625 10.1112 4.60625 6.745C4.82875 6.48 5.22125 6.44625 5.48625 6.66625C5.75125 6.8875 5.7875 7.28125 5.56625 7.54625C2.94375 10.6875 1.5 14.755 1.5 19C1.5 28.8137 9.0425 36.5 18.6713 36.5C28.5025 36.5 36.5 28.65 36.5 19C36.5 9.35 28.5025 1.5 18.6713 1.5C15.6213 1.5 12.655 2.275 10.0987 3.74C9.8025 3.90625 9.4175 3.8075 9.24625 3.5075C9.075 3.2075 9.17875 2.82625 9.47875 2.65375C12.2238 1.08125 15.4025 0.25 18.6713 0.25C29.1913 0.25 37.75 8.66125 37.75 19C37.75 29.3387 29.1913 37.75 18.6713 37.75Z" fill="#E0E0E0" fill-opacity="0.5"/>
<path d="M8.42871 4.68994C8.42871 5.03369 8.14746 5.31494 7.80371 5.31494C7.45996 5.31494 7.17871 5.03369 7.17871 4.68994C7.17871 4.34619 7.45996 4.06494 7.80371 4.06494C8.14746 4.06494 8.42871 4.34494 8.42871 4.68994Z" fill="#E0E0E0" fill-opacity="0.5"/>
<path d="M23.4375 29.0224C23.2988 29.0224 23.1575 28.9762 23.0425 28.8812L15.8388 22.9799C15.6975 22.8649 15.6138 22.6937 15.6088 22.5112C15.605 22.3287 15.68 22.1549 15.815 22.0324L21.1613 17.2074C21.4175 16.9737 21.8125 16.9962 22.0438 17.2524C22.2763 17.5087 22.255 17.9037 21.9988 18.1349L17.1913 22.4724L23.8325 27.9137C24.1 28.1324 24.1388 28.5262 23.92 28.7937C23.7975 28.9437 23.6175 29.0224 23.4375 29.0224Z" fill="#E0E0E0" fill-opacity="0.5"/>
<path d="M24.1963 29.255C23.865 29.255 23.5088 29.1512 23.135 28.945L19.0275 25.6437L16.9225 27.585C16.63 27.8712 16.2725 28.2187 15.5613 28.2187C14.6863 28.2187 14.4825 27.7575 14.3488 27.2837C14.325 27.2025 14.2988 27.1075 14.26 26.9987L12.7525 22.0375L8.43254 20.69C7.41504 20.3775 7.27879 19.7537 7.26754 19.5012C7.25004 19.0812 7.46879 18.4825 8.61004 18.025L27.17 10.8637C27.7013 10.6562 28.325 10.8237 28.685 11.2675C28.9388 11.5787 29.0363 11.9837 28.9538 12.3787L25.7475 27.7225C25.46 29.105 24.5663 29.255 24.1963 29.255ZM19 24.1937C19.1388 24.1937 19.2775 24.24 19.3913 24.3325L23.8288 27.91C24.4025 28.1837 24.4538 27.8037 24.525 27.4675L27.7313 12.125L27.6525 12.0237L9.07004 19.1887C8.85129 19.2762 8.70754 19.3625 8.62004 19.4262C8.66629 19.4487 8.72754 19.4725 8.80379 19.4962L13.4425 20.9437C13.6388 21.0062 13.7938 21.1612 13.8538 21.3587L15.4463 26.6037C15.4875 26.7137 15.5225 26.8387 15.5525 26.9437C15.555 26.9512 15.5575 26.96 15.5588 26.9675C15.725 26.9662 15.8125 26.9212 16.0438 26.695L18.5763 24.3575C18.6963 24.25 18.8475 24.1937 19 24.1937Z" fill="#E0E0E0" fill-opacity="0.5"/>
<path d="M24.0537 15.9399C24.0537 16.2837 23.7725 16.5649 23.4287 16.5649C23.085 16.5649 22.8037 16.2837 22.8037 15.9399C22.8037 15.5962 23.085 15.3149 23.4287 15.3149C23.7725 15.3149 24.0537 15.5949 24.0537 15.9399Z" fill="#E0E0E0" fill-opacity="0.5"/>
</svg>
